<svg id="Capa_1" data-name="Capa 1" xmlns="http://www.w3.org/2000/svg" viewBox="0 0 1022 381"><defs><style>.cls-1{fill:#fff}.cls-2{opacity:.6}</style></defs><path class="cls-1" d="M871.1 22.72a3.81 3.81 0 00-6.81 3.4L870.23 38l16.57 33.1 7.67 15.34 2.85 5.68c1 2.08 3.23 5.35 2.41 7.61a4.28 4.28 0 01-1.69 2 14 14 0 01-3.35 1.61 4.57 4.57 0 01-3.14.26c-3.24-1.25-4.91-6.55-6.34-9.42l-6.48-12.98-16.39-32.76-8.54-17.07a3.81 3.81 0 10-6.8 3.41l8.55 17.09 16.33 32.62 6.8 13.6c1.64 3.27 5.34 8.26 2.76 11.74a8.51 8.51 0 01-4.45 2.84 8.24 8.24 0 01-2.73.42 5.1 5.1 0 01-3.21-1.27c-2-2.07-3.22-6.26-4.51-8.83l-6.88-13.75-16.07-32.11-8.27-16.51a3.8 3.8 0 10-6.8 3.41l.09.18 9.62 19.22 16.18 32.34 6.43 12.84c1.7 3.41 5.18 8.39 1.66 11.79a9 9 0 01-3 1.72 8.06 8.06 0 01-2.3.65c-2.6.21-3.85-1.63-4.78-3.67-3.48-7.57-7.49-14.95-11.22-22.4l-15.63-31.34-8-15.88a3.81 3.81 0 00-6.81 3.41l35.52 71a4 4 0 00.44.68 23.85 23.85 0 006 8.62l.13.12.52.46c.41.36.82.71 1.25 1.05l.68.53c.21.17.44.32.66.48s.47.35.71.51l.68.45.77.5.68.42.84.49.67.39.92.5.63.34 1.14.57.52.26 1.65.79 1.54.74h.07l1.59.8h.08l1.63.84.1.06 1.58.83c6.91 3.71 14.08 8 14.89 8.52a189.54 189.54 0 0124.61 38.61c26 55.88 65.29 154.84 73.17 169.31 9.36 17.2 19.35 16.78 25.15 13.89s12.08-10.64 3.93-28.44c-6.86-15-61.85-105.47-91-159.77a211.24 211.24 0 01-16.76-43.06c.06-.56.91-9.12 2.12-17.08.39-2.59.82-5.11 1.27-7.28.13-.6.25-1.19.36-1.78 0-.2.07-.4.1-.59l.21-1.18c0-.23.07-.47.11-.71l.15-1 .09-.76c0-.32.07-.64.11-1s0-.53.07-.8l.06-.9v-3.29c0-.84-.07-1.68-.16-2.51a23.93 23.93 0 00-3.34-10.05 4.35 4.35 0 00-.28-.76z"/><g class="cls-2"><path class="cls-1" d="M148.68 169h-2.35c-37.26 0-68.13 29-69.33 65.62-1.22 37.43 29 68.9 67.24 70.16A69.82 69.82 0 00194 286.49a66.74 66.74 0 0021.9-47.34 66.65 66.65 0 00-18.76-48.64A69.87 69.87 0 00148.68 169zM207 238.86a58.21 58.21 0 01-19.11 41.3 60.7 60.7 0 01-41.26 16h-2.08c-33.37-1.09-59.65-28.54-58.59-61.18s29.1-58.31 62.45-57.23a60.85 60.85 0 0142.22 18.73A58.16 58.16 0 01207 238.86z"/><path class="cls-1" d="M149.73 136.49c-56.71-1.85-104.16 41.59-106 97s42.7 101.9 99.42 103.76 104.16-41.61 106-97.05-42.7-101.86-99.42-103.71zM240.58 240c-1.62 49.72-43.46 89-93.94 89-1.06 0-2.12 0-3.19-.05-51.91-1.71-92.79-44.39-91.12-95.14A90.47 90.47 0 0182 169.6a95.67 95.67 0 01133.13 4.4 90.46 90.46 0 0125.45 66z"/><path class="cls-1" d="M147.69 199.24h-1.3c-20.67 0-37.79 16.08-38.47 36.4-.66 20.76 16.08 38.22 37.32 38.91s39.07-15.64 39.76-36.39c.66-20.77-16.07-38.22-37.31-38.92z"/><path class="cls-1" d="M148.12 185.8h-1.78c-28 0-51.27 21.81-52.17 49.41C93.25 263.35 116 287 144.79 288a52.5 52.5 0 0037.46-13.76 50.21 50.21 0 0016.48-35.62A50.14 50.14 0 00184.61 202a52.59 52.59 0 00-36.49-16.2zm39.74 52.43c-.73 21.88-19.13 39.18-41.32 39.18h-1.39c-22.82-.75-40.8-19.52-40.08-41.86s19.87-39.9 42.71-39.15 40.79 19.5 40.08 41.83z"/><path class="cls-1" d="M149.17 153.88h-2.92a85.3 85.3 0 00-57.94 22.41 81.59 81.59 0 00-26.79 57.87c-1.5 45.76 35.39 84.24 82.23 85.78 1 0 1.92.05 2.87.05 45.56 0 83.3-35.45 84.77-80.28a81.63 81.63 0 00-22.95-59.5 85.42 85.42 0 00-59.27-26.33zm73.83 85.5a73.58 73.58 0 01-24.14 52.21 76.86 76.86 0 01-52.19 20.18h-2.62c-42.17-1.39-75.39-36.08-74-77.34s36.74-73.71 78.94-72.33a77 77 0 0153.38 23.67A73.54 73.54 0 01223 239.38z"/></g><g class="cls-2"><path class="cls-1" d="M899 59a158.5 158.5 0 01-16.47 36.75 96.06 96.06 0 01-12.37 16 54.35 54.35 0 01-16.35 11.9 33.8 33.8 0 01-9.82 2.75c-.85.1-1.71.17-2.57.19s-1.7 0-2.53 0a41.59 41.59 0 01-5.1-.17 16.32 16.32 0 01-5.07-1.29 8.83 8.83 0 01-2.25-1.52 6.82 6.82 0 01-1.56-2.27 11 11 0 01-.7-5.27 21.72 21.72 0 011.11-5.08 36.89 36.89 0 014.68-9.14 43.12 43.12 0 016.77-7.7 36.47 36.47 0 018.52-5.78 27.65 27.65 0 0110-2.62c3.43-.28 6.78-.23 10.09-.49a63.32 63.32 0 009.8-1.47 82.86 82.86 0 009.53-2.89c3.13-1.13 6.23-2.37 9.22-3.79a42.21 42.21 0 004.3-2.33 18.36 18.36 0 001.92-1.37 5.8 5.8 0 001.38-1.52 1.22 1.22 0 00.2-.6.82.82 0 00-.17-.46 4.34 4.34 0 00-1.48-1.19 19.38 19.38 0 00-4.39-1.64 54.09 54.09 0 00-9.69-1.39 82.08 82.08 0 00-9.92 0A80.41 80.41 0 00856.6 70a65.82 65.82 0 00-17.6 8.66 87.23 87.23 0 00-7.75 6.13 66.84 66.84 0 00-6.93 6.95 16.28 16.28 0 00-2.49 3.71 3 3 0 00-.2.67c0 .15 0 0-.08-.13s-.07 0 .13 0a3.49 3.49 0 00.81.09 18.24 18.24 0 004.47-.69c1.54-.4 3.09-.9 4.63-1.46a100.38 100.38 0 0017.73-8.68 69 69 0 008-5.67 43.6 43.6 0 006.61-7c.48-.64.94-1.28 1.39-2l1.38-2.07c.9-1.38 1.77-2.76 2.52-4.16a17.91 17.91 0 001.73-4.09 2.75 2.75 0 00.09-1.28v-.06a1.54 1.54 0 00-.42-.23 6.52 6.52 0 00-1.8-.37 20.59 20.59 0 00-2.24 0 44 44 0 00-4.76.46c-3.21.47-6.46 1.16-9.69 1.91-6.47 1.53-12.91 3.36-19.36 5.22L823 68.73c-1.64.45-3.28.89-5 1.3-.85.21-1.7.4-2.6.57-.45.09-.91.16-1.42.22-.26 0-.51.06-.82.07a5.47 5.47 0 01-1.16 0 3.36 3.36 0 01-1.19-.42 2.87 2.87 0 01-1.42-3 3.06 3.06 0 01.85-1.61 3.88 3.88 0 01.53-.47 9.92 9.92 0 011.41-.9c.84-.47 1.62-.84 2.41-1.22 1.57-.74 3.12-1.42 4.66-2.1 3.09-1.36 6.15-2.69 9.16-4.09s6-2.85 8.8-4.45a44.42 44.42 0 004-2.52 14.37 14.37 0 003.07-2.75 1.73 1.73 0 00.37-.71v.13a1.4 1.4 0 00-.16-.18l-.23-.2-.45-.32-1-.7a44 44 0 00-2-1.36 87.06 87.06 0 00-8.46-4.86 137.26 137.26 0 00-18.23-7.53 261.49 261.49 0 00-38.62-9.53c-13.14-2.29-26.42-3.89-39.73-5.05s-26.7-1.9-40.08-2.32c-26.77-.81-53.59-.39-80.38.85s-53.53 3.31-80.21 6.07A1644.839 1644.839 0 00376.11 46q-39.39 8.05-78.26 18.31c-25.85 6.9-51.52 14.6-76.71 23.45s-49.95 18.86-73.55 30.91a314.71 314.71 0 00-34 20c-10.79 7.36-20.93 15.59-29.33 25l-10.44-9.32c9.63-10.58 20.67-19.26 32.16-26.95a328.71 328.71 0 0135.71-20.48c24.47-12.17 49.81-22.07 75.45-30.82S268.77 59.86 295 53.19s52.52-12.5 79-17.64q79.5-15.39 160.2-22.89 40.31-3.75 80.8-5.28c27-1 54-1.11 81 0 13.49.56 27 1.42 40.45 2.75s26.9 3.08 40.24 5.55a265.93 265.93 0 0139.53 10.12 142.81 142.81 0 0118.94 8.06 91.83 91.83 0 019 5.28c.74.46 1.45 1 2.16 1.49l1.06.76c.19.15.32.22.57.42a8.28 8.28 0 01.72.64 6.6 6.6 0 011.33 1.83 5.55 5.55 0 01.51 2.58 7 7 0 01-1.53 3.88 19.29 19.29 0 01-4.4 4c-1.5 1-3 1.94-4.54 2.79-3.06 1.68-6.15 3.14-9.26 4.54s-6.22 2.72-9.3 4c-1.54.66-3.08 1.32-4.56 2-.73.33-1.47.68-2.11 1a8.31 8.31 0 00-.72.44v-.06a1.9 1.9 0 00.52-1.08 2.41 2.41 0 00-1.11-2.5 1.4 1.4 0 00-.6-.22h.53c.33 0 .7-.09 1.08-.16.75-.13 1.54-.3 2.33-.48 1.59-.37 3.2-.78 4.81-1.21l9.71-2.65c6.49-1.78 13-3.56 19.66-5 3.32-.74 6.67-1.41 10.11-1.87a47.76 47.76 0 015.29-.44 22.23 22.23 0 012.8.1 10.73 10.73 0 013.1.73 6 6 0 011.68 1 4.66 4.66 0 011.29 2 6.81 6.81 0 010 3.7 22.36 22.36 0 01-2.21 5.17c-.87 1.55-1.8 3-2.76 4.43l-1.44 2.11c-.49.72-1 1.44-1.56 2.13a48.65 48.65 0 01-7.32 7.6 72.12 72.12 0 01-8.53 5.91 103.83 103.83 0 01-18.56 8.82c-1.63.56-3.28 1.09-5 1.51a21.57 21.57 0 01-5.5.74 7.15 7.15 0 01-1.68-.24 3.82 3.82 0 01-2-1.24 3.43 3.43 0 01-.7-2.51 5.7 5.7 0 01.47-1.75 19.13 19.13 0 013.12-4.63 70.05 70.05 0 017.38-7.24 86.31 86.31 0 018.14-6.28 68.81 68.81 0 0118.58-8.84 83.54 83.54 0 0120.23-3.33 87.68 87.68 0 0110.25.13 57.42 57.42 0 0110.19 1.59 21.77 21.77 0 015 1.92 6.78 6.78 0 012.34 2 3.39 3.39 0 01.57 1.9 3.74 3.74 0 01-.54 1.79 8.33 8.33 0 01-2 2.19 19.85 19.85 0 01-2.2 1.54 46.78 46.78 0 01-4.56 2.46c-3.11 1.43-6.28 2.65-9.48 3.77a86.74 86.74 0 01-9.81 2.84 65.6 65.6 0 01-10.14 1.4c-3.41.22-6.79.14-10.07.37a25.62 25.62 0 00-9.44 2.37 34.37 34.37 0 00-8.18 5.41 41.48 41.48 0 00-6.61 7.33 36 36 0 00-4.6 8.71 21.15 21.15 0 00-1.09 4.74 9.72 9.72 0 00.54 4.63 6.08 6.08 0 003.15 3.18 14.79 14.79 0 004.65 1.23 40.87 40.87 0 005 .22h2.51c.81 0 1.65-.06 2.47-.15a32.25 32.25 0 009.56-2.56 53.64 53.64 0 0016.22-11.52 95.3 95.3 0 0012.47-15.73A158.11 158.11 0 00899 59z"/></g><path class="cls-1" d="M6.21 232.91a138.62 138.62 0 10143.06-134 138.6 138.6 0 00-143.06 134zM225 245.74a32.12 32.12 0 1133.13-31.07A32.13 32.13 0 01225 245.74zM164.59 306a32.13 32.13 0 1131.06 33.15A32.12 32.12 0 01164.59 306zm-49.41-152.61a32.12 32.12 0 1131 33.11 32.12 32.12 0 01-31-33.11zm-60.3 149a32.12 32.12 0 1131.06 33.15 32.13 32.13 0 01-31.06-33.16zm-21.75-95a32.11 32.11 0 1131.05 33.15 32.12 32.12 0 01-31.05-33.21zM311.82 184a10.11 10.11 0 01-10.28-10.28V39.82a9.83 9.83 0 013-7.41 10.14 10.14 0 017.32-2.87h89.39a10.11 10.11 0 017.32 2.67 9.33 9.33 0 012.77 7 8.75 8.75 0 01-2.81 6.79 10.31 10.31 0 01-7.32 2.57H322.1v48.01h56.76a10.11 10.11 0 017.32 2.67 9.79 9.79 0 010 13.65 10.11 10.11 0 01-7.32 2.67H322.1v58.14A10.11 10.11 0 01311.82 184zm136.06 0a10.13 10.13 0 01-10.28-10.28V39.82a9.84 9.84 0 013-7.41 10.24 10.24 0 0117.6 7.41v133.89a10.14 10.14 0 01-2.9 7.29 9.89 9.89 0 01-7.42 3zm59.92 0a9.64 9.64 0 01-7.22-3 10.13 10.13 0 01-2.86-7.32V39.82a10 10 0 013-7.32 9.74 9.74 0 017.12-3 10.13 10.13 0 0110.29 10.28v123.65h71.59a10.28 10.28 0 110 20.56zm127.2 0a10.13 10.13 0 01-10.29-10.28V39.82a9.84 9.84 0 013-7.41 10.13 10.13 0 017.29-2.87q5.92 0 9.09 5.54l61.9 124h-6.32l60.33-124q3.16-5.53 9.1-5.54a10.14 10.14 0 017.32 2.87 9.83 9.83 0 013 7.41v133.89a9.8 9.8 0 01-3.06 7.32 10.23 10.23 0 01-17.5-7.32V68.3l4-1-51.95 105.62q-3.36 5.15-8.9 5.14-6.53 0-9.49-6.13L641.29 69.29l4-1v105.42A10.13 10.13 0 01635 184z"/><path class="cls-1" d="M311.82 365.17a10.13 10.13 0 01-10.28-10.29V221a9.83 9.83 0 013-7.41 10.14 10.14 0 017.32-2.87h89.39a10.11 10.11 0 017.32 2.67 9.33 9.33 0 012.77 7 8.75 8.75 0 01-2.77 6.72 10.32 10.32 0 01-7.32 2.58H322.1v48.05h56.76a10.11 10.11 0 017.32 2.67 9.79 9.79 0 010 13.65 10.11 10.11 0 01-7.32 2.67H322.1v58.14a10.13 10.13 0 01-10.28 10.29zM509 367.14a84.21 84.21 0 01-31.84-5.83 72.18 72.18 0 01-24.82-16.42 74.45 74.45 0 01-16.12-25.11 91.61 91.61 0 010-63.78 74.85 74.85 0 0116.12-25 72.3 72.3 0 0124.82-16.41 89.44 89.44 0 0163.58 0 72.91 72.91 0 0141 41.43 91.46 91.46 0 010 63.78 72.77 72.77 0 01-41 41.53 83.47 83.47 0 01-31.74 5.81zm0-18.59a59.08 59.08 0 0023.64-4.64 56.56 56.56 0 0030.85-32.14 69.49 69.49 0 000-47.86 56.78 56.78 0 00-12.17-19.28 55.89 55.89 0 00-18.68-12.76 63.66 63.66 0 00-47.27 0 54.83 54.83 0 00-18.59 12.76 58.65 58.65 0 00-12.16 19.28 68 68 0 000 47.86 58.65 58.65 0 0012.16 19.28 56 56 0 0018.59 12.86 59 59 0 0023.63 4.64zm178.18 18.59a84.21 84.21 0 01-31.84-5.83 72.09 72.09 0 01-24.82-16.42 74.3 74.3 0 01-16.12-25.11 91.61 91.61 0 010-63.78 74.7 74.7 0 0116.12-25 72.21 72.21 0 0124.82-16.41 89.44 89.44 0 0163.58 0A72.91 72.91 0 01760 256a91.61 91.61 0 010 63.78 72.77 72.77 0 01-41 41.53 83.47 83.47 0 01-31.82 5.83zm0-18.59a59 59 0 0023.63-4.64 56.53 56.53 0 0030.86-32.14 69.49 69.49 0 000-47.86 56.93 56.93 0 00-12.17-19.28 55.83 55.83 0 00-18.69-12.76 63.64 63.64 0 00-47.26 0A54.73 54.73 0 00645 244.63a58.83 58.83 0 00-12.17 19.28 68 68 0 000 47.86A58.83 58.83 0 00645 331.05a55.85 55.85 0 0018.59 12.86 59 59 0 0023.59 4.64zm121.03 16.62a10.13 10.13 0 01-10.28-10.29V221a9.87 9.87 0 013-7.41 10.14 10.14 0 017.32-2.87H844a81.88 81.88 0 0131 5.64 71.13 71.13 0 0140 40.44 90.06 90.06 0 010 62.2 70.91 70.91 0 01-40 40.54 81.88 81.88 0 01-31 5.64zM818.5 347H844q16.61 0 29.37-7.61a54.41 54.41 0 0020.07-21q7.31-13.33 7.32-30.55 0-17.4-7.32-30.65a53.8 53.8 0 00-20.07-20.77q-12.76-7.51-29.37-7.51h-25.5z"/></svg>