<svg id="Capa_1" data-name="Capa 1" xmlns="http://www.w3.org/2000/svg" viewBox="0 0 1022 381"><defs><style>.cls-1{fill:#fff;}.cls-2{opacity:0.6;}</style></defs><path class="cls-1" d="M871.1,22.72a3.81,3.81,0,0,0-6.81,3.4L870.23,38,886.8,71.1l7.67,15.34,2.85,5.68c1,2.08,3.23,5.35,2.41,7.61a4.28,4.28,0,0,1-1.69,2,14,14,0,0,1-3.35,1.61,4.57,4.57,0,0,1-3.14.26c-3.24-1.25-4.91-6.55-6.34-9.42L878.73,81.2,862.34,48.44,853.8,31.37A3.81,3.81,0,1,0,847,34.78l8.55,17.09,16.33,32.62,6.8,13.6c1.64,3.27,5.34,8.26,2.76,11.74a8.51,8.51,0,0,1-4.45,2.84,8.24,8.24,0,0,1-2.73.42,5.1,5.1,0,0,1-3.21-1.27c-2-2.07-3.22-6.26-4.51-8.83l-6.88-13.75L843.59,57.13l-8.27-16.51a3.8,3.8,0,1,0-6.8,3.41l.09.18,9.62,19.22,16.18,32.34,6.43,12.84c1.7,3.41,5.18,8.39,1.66,11.79a9,9,0,0,1-3,1.72,8.06,8.06,0,0,1-2.3.65c-2.6.21-3.85-1.63-4.78-3.67-3.48-7.57-7.49-14.95-11.22-22.4L825.57,65.36l-8-15.88a3.81,3.81,0,0,0-6.81,3.41l35.52,71a4,4,0,0,0,.44.68,23.85,23.85,0,0,0,6,8.62l.13.12.52.46c.41.36.82.71,1.25,1.05l.68.53c.21.17.44.32.66.48s.47.35.71.51l.68.45.77.5.68.42.84.49.67.39.92.5.63.34L863,140l.52.26,1.65.79,1.54.74.07,0,1.59.8.08,0,1.63.84.1.06,1.58.83c6.91,3.71,14.08,8,14.89,8.52a189.54,189.54,0,0,1,24.61,38.61c26,55.88,65.29,154.84,73.17,169.31,9.36,17.2,19.35,16.78,25.15,13.89s12.08-10.64,3.93-28.44c-6.86-15-61.85-105.47-91-159.77l0,0a211.24,211.24,0,0,1-16.76-43.06c.06-.56.91-9.12,2.12-17.08.39-2.59.82-5.11,1.27-7.28.13-.6.25-1.19.36-1.78,0-.2.07-.4.1-.59l.21-1.18c0-.23.07-.47.11-.71l.15-1,.09-.76c0-.32.07-.64.11-1s0-.53.07-.8l.06-.9c0-.27,0-.55,0-.82s0-.56,0-.85,0-.56,0-.84,0-.52,0-.78c0-.84-.07-1.68-.16-2.51a23.93,23.93,0,0,0-3.34-10.05,4.35,4.35,0,0,0-.28-.76Z"/><g class="cls-2"><path class="cls-1" d="M148.68,169c-.79,0-1.57,0-2.35,0C109.07,169,78.2,198,77,234.62c-1.22,37.43,29,68.9,67.24,70.16A69.82,69.82,0,0,0,194,286.49a66.74,66.74,0,0,0,21.9-47.34h0a66.65,66.65,0,0,0-18.76-48.64A69.87,69.87,0,0,0,148.68,169ZM207,238.86h0a58.21,58.21,0,0,1-19.11,41.3,60.7,60.7,0,0,1-41.26,16l-2.08,0c-33.37-1.09-59.65-28.54-58.59-61.18s29.1-58.31,62.45-57.23a60.85,60.85,0,0,1,42.22,18.73A58.16,58.16,0,0,1,207,238.86Z"/><path class="cls-1" d="M149.73,136.49c-56.71-1.85-104.16,41.59-106,97s42.7,101.9,99.42,103.76,104.16-41.61,106-97.05S206.45,138.34,149.73,136.49ZM240.58,240c-1.62,49.72-43.46,89-93.94,89-1.06,0-2.12,0-3.19-.05-51.91-1.71-92.79-44.39-91.12-95.14A90.47,90.47,0,0,1,82,169.6,95.67,95.67,0,0,1,215.13,174,90.46,90.46,0,0,1,240.58,240Z"/><path class="cls-1" d="M147.69,199.24l-1.3,0c-20.67,0-37.79,16.08-38.47,36.4-.66,20.76,16.08,38.22,37.32,38.91s39.07-15.64,39.76-36.39h0C185.66,217.39,168.93,199.94,147.69,199.24Z"/><path class="cls-1" d="M148.12,185.8l-1.78,0c-28,0-51.27,21.81-52.17,49.41C93.25,263.35,116,287,144.79,288a52.5,52.5,0,0,0,37.46-13.76,50.21,50.21,0,0,0,16.48-35.62h0A50.14,50.14,0,0,0,184.61,202,52.59,52.59,0,0,0,148.12,185.8Zm39.74,52.43h0c-.73,21.88-19.13,39.18-41.32,39.18l-1.39,0c-22.82-.75-40.8-19.52-40.08-41.86s19.87-39.9,42.71-39.15S188.57,215.9,187.86,238.23Z"/><path class="cls-1" d="M149.17,153.88c-1,0-1.95,0-2.92,0a85.3,85.3,0,0,0-57.94,22.41,81.59,81.59,0,0,0-26.79,57.87c-1.5,45.76,35.39,84.24,82.23,85.78,1,0,1.92.05,2.87.05,45.56,0,83.3-35.45,84.77-80.28a81.63,81.63,0,0,0-22.95-59.5A85.42,85.42,0,0,0,149.17,153.88ZM223,239.38h0a73.58,73.58,0,0,1-24.14,52.21,76.86,76.86,0,0,1-52.19,20.18c-.87,0-1.74,0-2.62,0-42.17-1.39-75.39-36.08-74-77.34s36.74-73.71,78.94-72.33a77,77,0,0,1,53.38,23.67A73.54,73.54,0,0,1,223,239.38Z"/></g><g class="cls-2"><path class="cls-1" d="M899,59a158.5,158.5,0,0,1-16.47,36.75,96.06,96.06,0,0,1-12.37,16,54.35,54.35,0,0,1-16.35,11.9,33.8,33.8,0,0,1-9.82,2.75c-.85.1-1.71.17-2.57.19s-1.7,0-2.53,0a41.59,41.59,0,0,1-5.1-.17,16.32,16.32,0,0,1-5.07-1.29,8.83,8.83,0,0,1-2.25-1.52,6.82,6.82,0,0,1-1.56-2.27,11,11,0,0,1-.7-5.27,21.72,21.72,0,0,1,1.11-5.08,36.89,36.89,0,0,1,4.68-9.14,43.12,43.12,0,0,1,6.77-7.7,36.47,36.47,0,0,1,8.52-5.78,27.65,27.65,0,0,1,10-2.62c3.43-.28,6.78-.23,10.09-.49a63.32,63.32,0,0,0,9.8-1.47,82.86,82.86,0,0,0,9.53-2.89c3.13-1.13,6.23-2.37,9.22-3.79a42.21,42.21,0,0,0,4.3-2.33,18.36,18.36,0,0,0,1.92-1.37,5.8,5.8,0,0,0,1.38-1.52,1.22,1.22,0,0,0,.2-.6.82.82,0,0,0-.17-.46,4.34,4.34,0,0,0-1.48-1.19A19.38,19.38,0,0,0,895.69,68,54.09,54.09,0,0,0,886,66.61a82.08,82.08,0,0,0-9.92,0A80.41,80.41,0,0,0,856.6,70,65.82,65.82,0,0,0,839,78.66a87.23,87.23,0,0,0-7.75,6.13,66.84,66.84,0,0,0-6.93,6.95,16.28,16.28,0,0,0-2.49,3.71,3,3,0,0,0-.2.67c0,.15,0,0-.08-.13s-.07,0,.13,0a3.49,3.49,0,0,0,.81.09,18.24,18.24,0,0,0,4.47-.69c1.54-.4,3.09-.9,4.63-1.46a100.38,100.38,0,0,0,17.73-8.68,69,69,0,0,0,8-5.67,43.6,43.6,0,0,0,6.61-7c.48-.64.94-1.28,1.39-2l1.38-2.07c.9-1.38,1.77-2.76,2.52-4.16a17.91,17.91,0,0,0,1.73-4.09,2.75,2.75,0,0,0,.09-1.28s0,0,0-.06a1.54,1.54,0,0,0-.42-.23,6.52,6.52,0,0,0-1.8-.37,20.59,20.59,0,0,0-2.24,0,44,44,0,0,0-4.76.46c-3.21.47-6.46,1.16-9.69,1.91-6.47,1.53-12.91,3.36-19.36,5.22L823,68.73c-1.64.45-3.28.89-5,1.3-.85.21-1.7.4-2.6.57-.45.09-.91.16-1.42.22-.26,0-.51.06-.82.07a5.47,5.47,0,0,1-1.16,0,3.36,3.36,0,0,1-1.19-.42,2.87,2.87,0,0,1-1.42-3,3.06,3.06,0,0,1,.85-1.61,3.88,3.88,0,0,1,.53-.47,9.92,9.92,0,0,1,1.41-.9c.84-.47,1.62-.84,2.41-1.22,1.57-.74,3.12-1.42,4.66-2.1,3.09-1.36,6.15-2.69,9.16-4.09s6-2.85,8.8-4.45a44.42,44.42,0,0,0,4-2.52,14.37,14.37,0,0,0,3.07-2.75,1.73,1.73,0,0,0,.37-.71s0,.12,0,.13a1.4,1.4,0,0,0-.16-.18l-.23-.2-.45-.32-1-.7c-.66-.47-1.32-.93-2-1.36a87.06,87.06,0,0,0-8.46-4.86,137.26,137.26,0,0,0-18.23-7.53A261.49,261.49,0,0,0,775.5,22.1c-13.14-2.29-26.42-3.89-39.73-5.05s-26.7-1.9-40.08-2.32c-26.77-.81-53.59-.39-80.38.85s-53.53,3.31-80.21,6.07C481.74,27.17,428.64,35.3,376.11,46q-39.39,8.05-78.26,18.31C272,71.21,246.33,78.91,221.14,87.76s-49.95,18.86-73.55,30.91a314.71,314.71,0,0,0-34,20c-10.79,7.36-20.93,15.59-29.33,25l-10.44-9.32c9.63-10.58,20.67-19.26,32.16-26.95a328.71,328.71,0,0,1,35.71-20.48c24.47-12.17,49.81-22.07,75.45-30.82S268.77,59.86,295,53.19,347.52,40.69,374,35.55q79.5-15.39,160.2-22.89Q574.51,8.91,615,7.38c27-1,54-1.11,81,0,13.49.56,27,1.42,40.45,2.75s26.9,3.08,40.24,5.55a265.93,265.93,0,0,1,39.53,10.12,142.81,142.81,0,0,1,18.94,8.06,91.83,91.83,0,0,1,9,5.28c.74.46,1.45,1,2.16,1.49l1.06.76c.19.15.32.22.57.42a8.28,8.28,0,0,1,.72.64,6.6,6.6,0,0,1,1.33,1.83,5.55,5.55,0,0,1,.51,2.58,7,7,0,0,1-1.53,3.88,19.29,19.29,0,0,1-4.4,4c-1.5,1-3,1.94-4.54,2.79-3.06,1.68-6.15,3.14-9.26,4.54s-6.22,2.72-9.3,4c-1.54.66-3.08,1.32-4.56,2-.73.33-1.47.68-2.11,1a8.31,8.31,0,0,0-.72.44s0,0,0-.06a1.9,1.9,0,0,0,.52-1.08,2.41,2.41,0,0,0-1.11-2.5,1.4,1.4,0,0,0-.6-.22c-.11,0,0,0,.1,0l.43,0c.33,0,.7-.09,1.08-.16.75-.13,1.54-.3,2.33-.48,1.59-.37,3.2-.78,4.81-1.21l9.71-2.65c6.49-1.78,13-3.56,19.66-5,3.32-.74,6.67-1.41,10.11-1.87a47.76,47.76,0,0,1,5.29-.44,22.23,22.23,0,0,1,2.8.1,10.73,10.73,0,0,1,3.1.73A6,6,0,0,1,874,55.67a4.66,4.66,0,0,1,1.29,2,6.81,6.81,0,0,1,0,3.7,22.36,22.36,0,0,1-2.21,5.17c-.87,1.55-1.8,3-2.76,4.43l-1.44,2.11c-.49.72-1,1.44-1.56,2.13A48.65,48.65,0,0,1,860,82.81a72.12,72.12,0,0,1-8.53,5.91,103.83,103.83,0,0,1-18.56,8.82c-1.63.56-3.28,1.09-5,1.51a21.57,21.57,0,0,1-5.5.74,7.15,7.15,0,0,1-1.68-.24,3.82,3.82,0,0,1-2-1.24,3.43,3.43,0,0,1-.7-2.51,5.7,5.7,0,0,1,.47-1.75,19.13,19.13,0,0,1,3.12-4.63A70.05,70.05,0,0,1,829,82.18a86.31,86.31,0,0,1,8.14-6.28,68.81,68.81,0,0,1,18.58-8.84,83.54,83.54,0,0,1,20.23-3.33,87.68,87.68,0,0,1,10.25.13,57.42,57.42,0,0,1,10.19,1.59,21.77,21.77,0,0,1,5,1.92,6.78,6.78,0,0,1,2.34,2,3.39,3.39,0,0,1,.57,1.9,3.74,3.74,0,0,1-.54,1.79,8.33,8.33,0,0,1-2,2.19,19.85,19.85,0,0,1-2.2,1.54A46.78,46.78,0,0,1,895,79.25c-3.11,1.43-6.28,2.65-9.48,3.77a86.74,86.74,0,0,1-9.81,2.84,65.6,65.6,0,0,1-10.14,1.4c-3.41.22-6.79.14-10.07.37A25.62,25.62,0,0,0,846.06,90a34.37,34.37,0,0,0-8.18,5.41,41.48,41.48,0,0,0-6.61,7.33,36,36,0,0,0-4.6,8.71,21.15,21.15,0,0,0-1.09,4.74,9.72,9.72,0,0,0,.54,4.63,6.08,6.08,0,0,0,3.15,3.18,14.79,14.79,0,0,0,4.65,1.23,40.87,40.87,0,0,0,5,.22c.85,0,1.7,0,2.51,0s1.65-.06,2.47-.15a32.25,32.25,0,0,0,9.56-2.56,53.64,53.64,0,0,0,16.22-11.52,95.3,95.3,0,0,0,12.47-15.73A158.11,158.11,0,0,0,899,59Z"/></g><path class="cls-1" d="M6.21,232.91a138.62,138.62,0,1,0,143.06-134A138.6,138.6,0,0,0,6.21,232.91ZM225,245.74a32.12,32.12,0,1,1,33.13-31.07A32.13,32.13,0,0,1,225,245.74ZM164.59,306a32.13,32.13,0,1,1,31.06,33.15A32.12,32.12,0,0,1,164.59,306ZM115.18,153.39a32.12,32.12,0,1,1,31,33.11A32.12,32.12,0,0,1,115.18,153.39Zm-60.3,149a32.12,32.12,0,1,1,31.06,33.15A32.13,32.13,0,0,1,54.88,302.38Zm-21.75-95a32.11,32.11,0,1,1,31.05,33.15A32.12,32.12,0,0,1,33.13,207.33Z"/><path class="cls-1" d="M311.82,184a10.11,10.11,0,0,1-10.28-10.28V39.82a9.83,9.83,0,0,1,3-7.41,10.14,10.14,0,0,1,7.32-2.87h89.39a10.11,10.11,0,0,1,7.32,2.67,9.33,9.33,0,0,1,2.77,7A8.75,8.75,0,0,1,408.53,46a10.31,10.31,0,0,1-7.32,2.57H322.1V96.58h56.76a10.11,10.11,0,0,1,7.32,2.67,9.79,9.79,0,0,1,0,13.65,10.11,10.11,0,0,1-7.32,2.67H322.1v58.14A10.11,10.11,0,0,1,311.82,184Z"/><path class="cls-1" d="M447.88,184a10.13,10.13,0,0,1-10.28-10.28V39.82a9.84,9.84,0,0,1,3-7.41,10.24,10.24,0,0,1,17.6,7.41V173.71A10.14,10.14,0,0,1,455.3,181,9.89,9.89,0,0,1,447.88,184Z"/><path class="cls-1" d="M507.8,184a9.64,9.64,0,0,1-7.22-3,10.13,10.13,0,0,1-2.86-7.32V39.82a10,10,0,0,1,3-7.32,9.74,9.74,0,0,1,7.12-3,10.13,10.13,0,0,1,10.29,10.28V163.43h71.59a10.28,10.28,0,1,1,0,20.56Z"/><path class="cls-1" d="M635,184a10.13,10.13,0,0,1-10.29-10.28V39.82a9.84,9.84,0,0,1,3-7.41A10.13,10.13,0,0,1,635,29.54q5.92,0,9.09,5.54l61.9,124h-6.32L760,35.08q3.16-5.53,9.1-5.54a10.14,10.14,0,0,1,7.32,2.87,9.83,9.83,0,0,1,3,7.41V173.71a9.8,9.8,0,0,1-3.06,7.32,10.23,10.23,0,0,1-17.5-7.32V68.3l4-1L710.91,172.92q-3.36,5.15-8.9,5.14-6.53,0-9.49-6.13L641.29,69.29l4-1V173.71A10.13,10.13,0,0,1,635,184Z"/><path class="cls-1" d="M311.82,365.17a10.13,10.13,0,0,1-10.28-10.29V221a9.83,9.83,0,0,1,3-7.41,10.14,10.14,0,0,1,7.32-2.87h89.39a10.11,10.11,0,0,1,7.32,2.67,9.33,9.33,0,0,1,2.77,7,8.75,8.75,0,0,1-2.77,6.72,10.32,10.32,0,0,1-7.32,2.58H322.1v48.05h56.76a10.11,10.11,0,0,1,7.32,2.67,9.79,9.79,0,0,1,0,13.65,10.11,10.11,0,0,1-7.32,2.67H322.1v58.14a10.13,10.13,0,0,1-10.28,10.29Z"/><path class="cls-1" d="M509,367.14a84.21,84.21,0,0,1-31.84-5.83,72.18,72.18,0,0,1-24.82-16.42,74.45,74.45,0,0,1-16.12-25.11,91.61,91.61,0,0,1,0-63.78,74.85,74.85,0,0,1,16.12-25,72.3,72.3,0,0,1,24.82-16.41,89.44,89.44,0,0,1,63.58,0,72.91,72.91,0,0,1,41,41.43,91.46,91.46,0,0,1,0,63.78,72.77,72.77,0,0,1-41,41.53A83.47,83.47,0,0,1,509,367.14Zm0-18.59a59.08,59.08,0,0,0,23.64-4.64,56.56,56.56,0,0,0,30.85-32.14,69.49,69.49,0,0,0,0-47.86,56.78,56.78,0,0,0-12.17-19.28,55.89,55.89,0,0,0-18.68-12.76,63.66,63.66,0,0,0-47.27,0,54.83,54.83,0,0,0-18.59,12.76,58.65,58.65,0,0,0-12.16,19.28,68,68,0,0,0,0,47.86,58.65,58.65,0,0,0,12.16,19.28,56,56,0,0,0,18.59,12.86A59,59,0,0,0,509,348.55Z"/><path class="cls-1" d="M687.18,367.14a84.21,84.21,0,0,1-31.84-5.83,72.09,72.09,0,0,1-24.82-16.42,74.3,74.3,0,0,1-16.12-25.11,91.61,91.61,0,0,1,0-63.78,74.7,74.7,0,0,1,16.12-25,72.21,72.21,0,0,1,24.82-16.41,89.44,89.44,0,0,1,63.58,0A72.91,72.91,0,0,1,760,256a91.61,91.61,0,0,1,0,63.78,72.77,72.77,0,0,1-41,41.53A83.47,83.47,0,0,1,687.18,367.14Zm0-18.59a59,59,0,0,0,23.63-4.64,56.53,56.53,0,0,0,30.86-32.14,69.49,69.49,0,0,0,0-47.86,56.93,56.93,0,0,0-12.17-19.28,55.83,55.83,0,0,0-18.69-12.76,63.64,63.64,0,0,0-47.26,0A54.73,54.73,0,0,0,645,244.63a58.83,58.83,0,0,0-12.17,19.28,68,68,0,0,0,0,47.86A58.83,58.83,0,0,0,645,331.05a55.85,55.85,0,0,0,18.59,12.86A59,59,0,0,0,687.18,348.55Z"/><path class="cls-1" d="M808.21,365.17a10.13,10.13,0,0,1-10.28-10.29V221a9.87,9.87,0,0,1,3-7.41,10.14,10.14,0,0,1,7.32-2.87H844a81.88,81.88,0,0,1,31,5.64,71.13,71.13,0,0,1,40,40.44,90.06,90.06,0,0,1,0,62.2,70.91,70.91,0,0,1-40,40.54,81.88,81.88,0,0,1-31,5.64ZM818.5,347H844q16.61,0,29.37-7.61a54.41,54.41,0,0,0,20.07-21q7.31-13.33,7.32-30.55,0-17.4-7.32-30.65a53.8,53.8,0,0,0-20.07-20.77q-12.76-7.51-29.37-7.51H818.5Z"/></svg>