<?xml version="1.0" encoding="utf-8"?>
<!-- Generator: Adobe Illustrator 25.0.1, SVG Export Plug-In . SVG Version: 6.00 Build 0)  -->
<svg version="1.1" id="Capa_1" xmlns="http://www.w3.org/2000/svg" xmlns:xlink="http://www.w3.org/1999/xlink" x="0px" y="0px"
	 viewBox="0 0 199.82 55.3" style="enable-background:new 0 0 199.82 55.3;" xml:space="preserve">
<style type="text/css">
	.st0{fill:none;}
</style>
<g transform="translate(0.000000,394.000000) scale(0.100000,-0.100000)">
	<path d="M0,3386.96l1007.12,88.14l991.07,89.44V3940H0V3386.96z M661.41,3538.45c2.6,0.22,6.3-1.09,8.78-3.33
		c4.21-3.4,4.47-4.52,6.08-23.17c1.68-19.47,1.71-19.79-2.61-24.74c-3.69-4.57-5.27-5.19-14.36-5.98
		c-9.1-0.62-10.76-0.27-15.33,3.42c-4.93,4.15-4.96,4.47-6.64,23.94l-1.71,19.79l4.45,5.29c4.02,4.6,5.42,5.37,10.7,4.84
		C654.07,3538.3,658.98,3538.24,661.41,3538.45z M1361.75,3594.42c3.55-3.29,4.03-5.05,5.64-23.7l1.72-19.95l-4.5-4.64
		c-6.03-5.91-21.4-7.73-28.33-3.1c-4.32,2.73-4.36,3.22-6.27,25.28c-1.93,22.39-1.94,22.55,2.16,26.17c3.47,3.4,5.4,3.73,14.71,3.72
		C1355.55,3598.13,1358.55,3597.41,1361.75,3594.42z M63.8,3483.33c3.85-2.94,4.14-4.38,5.8-23.69c1.73-20.11,1.63-20.78-2.06-25.34
		c-3.57-4.07-5.15-4.69-15.7-5.6c-9.41-0.81-12.71-0.44-16.35,2.02c-4.5,2.88-4.51,3.04-6.44,25.43
		c-2.36,27.41-2.22,27.59,17.74,29.31C57.81,3486.4,60.29,3486.13,63.8,3483.33z M153.01,3491.02c3.85-2.94,4.14-4.38,5.83-24.01
		c1.73-20.11,1.66-21.1-1.92-25.17c-3.1-3.86-5-4.52-15.55-5.43c-9.73-0.84-12.87-0.46-16.68,1.99c-4.5,2.88-4.53,3.21-6.34,24.29
		c-1.68,19.47-1.54,21.6,1.41,25.29c2.8,3.51,4.71,4.16,16.22,5.16C147.03,3494.1,149.5,3493.82,153.01,3491.02z M238.99,3498.43
		c3.85-2.94,4.12-4.22,5.88-24.66c1.83-21.25,1.86-21.57-2.08-25.18c-3.33-3.07-6.36-3.98-16.09-4.82
		c-10.54-0.91-12.53-0.59-16.25,2.68c-4.21,3.4-4.47,4.52-6.17,24.15c-1.64,18.98-1.49,21.12,1.46,24.8
		c2.8,3.51,4.71,4.16,16.22,5.16C233,3501.51,235.48,3501.23,238.99,3498.43z M325.1,3506.18c3.67-2.79,3.99-4.56,5.74-24.84
		c1.85-21.41,1.87-21.74-2.06-25.34c-3.17-3.05-6.36-3.98-15.77-4.79c-10.22-0.88-12.37-0.58-16.41,2.67
		c-4.55,3.53-4.58,3.85-6.37,24.62c-1.79,20.76-1.82,21.09,2.12,24.7C298.09,3508.59,319.5,3510.44,325.1,3506.18z M412.56,3513.4
		c3.85-2.94,4.12-4.22,5.88-24.66c1.83-21.25,1.86-21.57-2.08-25.18c-3.33-3.07-6.36-3.98-16.09-4.82
		c-10.54-0.91-12.53-0.59-16.25,2.68c-4.21,3.4-4.47,4.52-6.17,24.15c-1.64,18.98-1.49,21.12,1.46,24.8
		c2.8,3.51,4.71,4.16,16.22,5.16C406.57,3516.47,409.05,3516.2,412.56,3513.4z M501.5,3520.57c4.21-3.4,4.47-4.52,6.1-23.33
		c1.68-19.47,1.57-20.13-2.27-24.87c-3.69-4.57-4.8-4.99-16.48-6c-12-1.03-12.67-0.93-17.14,3.59c-4.46,4.35-4.72,5.48-6.32,23.97
		c-1.59,18.49-1.53,19.64,2.04,23.71c3.26,3.88,4.84,4.5,16.68,5.52S497.62,3523.83,501.5,3520.57z M586.59,3528.73
		c3.7-3.11,3.97-4.4,6.23-30.51c1.26-14.6,1.17-15.42-2.74-19.36c-3.29-3.55-5.68-4.25-16.06-5.14c-10.71-0.92-12.69-0.6-16.41,2.67
		c-4.21,3.4-4.47,4.52-6.17,24.14c-1.64,18.98-1.49,21.12,1.46,24.8c2.8,3.51,4.71,4.16,16.71,5.2
		C580.96,3531.51,583.59,3531.25,586.59,3528.73z M754.83,3542.91c3.85-2.94,4.14-4.38,5.83-24.01c1.78-20.6,1.8-20.93-2.08-25.18
		c-3.42-3.89-5.49-4.56-15.71-5.44c-9.41-0.81-12.71-0.44-16.35,2.02c-4.5,2.88-4.53,3.21-6.37,24.62
		c-2.38,27.58-1.8,28.44,17.67,30.12C748.85,3545.98,751.32,3545.71,754.83,3542.91z M844.05,3550.6c3.85-2.94,4.14-4.38,5.83-24.01
		c1.73-20.11,1.66-21.1-1.92-25.17c-3.1-3.86-5-4.52-15.55-5.43c-9.73-0.84-12.87-0.46-16.68,1.99c-4.5,2.88-4.53,3.21-6.34,24.29
		c-1.68,19.47-1.54,21.6,1.41,25.29c2.8,3.51,4.71,4.16,16.22,5.16C838.07,3553.68,840.54,3553.4,844.05,3550.6z M930.03,3558.01
		c3.85-2.94,4.12-4.22,5.88-24.66c1.83-21.25,1.86-21.57-2.08-25.18c-3.33-3.07-6.36-3.98-16.09-4.82
		c-10.54-0.91-12.53-0.59-16.25,2.68c-4.21,3.4-4.46,4.35-6.21,24.63c-1.79,20.76-1.82,21.09,2.12,24.7
		c3.33,3.07,6.36,3.98,16.25,4.83C924.04,3561.09,926.52,3560.81,930.03,3558.01z M1017.34,3565.05c4.21-3.4,4.47-4.52,6.08-23.17
		c1.69-19.63,1.71-19.79-2.59-24.9c-4-4.76-5.27-5.19-16.46-6.16c-10.87-0.94-12.53-0.59-16.75,2.81c-4.42,3.87-4.64,4.5-6.33,24.13
		c-1.65,19.14-1.59,20.29,1.99,24.36c3.26,3.88,4.84,4.5,16.68,5.52C1011.8,3568.66,1013.46,3568.31,1017.34,3565.05z
		 M1103.73,3573.31c3.51-2.8,4-4.72,5.39-20.78c0.83-9.57,2.09-18.61,2.71-20.03c0.79-1.57-0.6-4.46-3.25-7.8
		c-4.15-4.93-5.26-5.36-16.61-6.33c-10.87-0.94-12.53-0.59-16.75,2.8c-4.42,3.87-4.64,4.5-6.39,24.78
		c-1.76,20.44-1.79,20.76,2.15,24.37C1076.72,3575.72,1098.14,3577.57,1103.73,3573.31z M1193.2,3580.05
		c3.42-3.63,3.97-6.2,5.46-23.55c1.65-19.14,1.54-19.8-2.3-24.55c-3.69-4.57-4.8-4.99-16.48-6c-11.84-1.02-12.84-0.78-16.95,3.28
		c-3.95,4.07-4.42,5.83-6.32,23.97c-1.96,18.95-1.87,19.78,1.69,24.01c3.41,4.05,5,4.52,17.49,5.59
		C1188.62,3583.9,1189.78,3583.67,1193.2,3580.05z M1277.78,3588.48c3.98-2.6,4.27-4.04,6.41-23.14l2.41-20.38l-4.45-5.29
		c-4.15-4.93-5.42-5.37-16.61-6.33c-10.54-0.91-12.53-0.59-16.73,2.64c-4.55,3.53-4.58,3.85-6.37,24.62s-1.82,21.09,2.12,24.7
		C1250.15,3590.51,1271.71,3592.53,1277.78,3588.48z M1445.87,3602.49c3.85-2.94,4.14-4.38,5.83-24.01
		c1.78-20.6,1.8-20.93-2.08-25.18c-3.42-3.89-5.49-4.56-15.71-5.44c-9.41-0.81-12.71-0.44-16.35,2.02
		c-4.5,2.88-4.53,3.21-6.34,24.29c-1.68,19.47-1.54,21.6,1.41,25.29c2.8,3.51,4.71,4.16,16.22,5.16
		C1439.89,3605.56,1442.36,3605.29,1445.87,3602.49z M1535.09,3610.18c3.85-2.94,4.12-4.22,5.88-24.66
		c1.83-21.25,1.86-21.57-2.08-25.18c-3.33-3.07-6.36-3.98-16.09-4.82c-10.54-0.91-12.53-0.59-16.25,2.68
		c-4.21,3.4-4.47,4.52-6.17,24.15c-1.64,18.98-1.49,21.12,1.46,24.8c2.8,3.51,4.71,4.16,16.22,5.16
		C1529.11,3613.26,1531.58,3612.98,1535.09,3610.18z M1621.07,3617.59c3.85-2.94,4.12-4.22,5.88-24.66
		c1.83-21.25,1.86-21.57-2.08-25.18c-3.17-3.05-6.36-3.98-15.77-4.79c-10.22-0.88-12.37-0.58-16.41,2.67
		c-4.55,3.53-4.58,3.85-6.37,24.62c-1.79,20.76-1.82,21.09,2.12,24.7c3.33,3.07,6.36,3.98,16.25,4.83
		C1615.08,3620.67,1617.56,3620.39,1621.07,3617.59z M1708.38,3624.63c4.21-3.4,4.47-4.52,6.14-23.82l1.73-20.11l-4.67-4.65
		c-4.06-4.11-6.12-4.78-16.34-5.66c-10.71-0.92-12.19-0.72-16.45,3.16c-4.6,4.02-4.81,4.65-6.49,24.12
		c-1.62,18.82-1.56,19.97,2.01,24.03c3.26,3.88,4.84,4.5,16.68,5.52C1702.84,3628.24,1704.5,3627.89,1708.38,3624.63z
		 M1795.09,3632.92c3-2.52,3.71-5.07,4.95-19.51c0.8-9.25,2.07-18.29,2.72-20.19c1.03-2.53,0.1-4.89-3.15-8.93
		c-4.15-4.93-5.26-5.36-16.61-6.34c-10.87-0.94-12.53-0.59-16.75,2.81c-4.42,3.87-4.64,4.5-6.33,24.13
		c-1.65,19.14-1.59,20.29,1.99,24.36c3.26,3.88,4.84,4.5,16.68,5.52C1789.46,3635.7,1792.1,3635.44,1795.09,3632.92z
		 M1884.23,3639.63c3.42-3.63,3.97-6.19,5.49-23.88c1.66-19.3,1.56-19.97-2.13-24.53c-3.57-4.07-5.15-4.69-15.7-5.6
		c-9.25-0.8-12.71-0.44-16.01,1.89c-4.14,2.58-4.42,3.87-6.78,21.8c-3.76,28.44-2.36,31.17,18.23,33.11
		C1879.65,3643.48,1880.82,3643.25,1884.23,3639.63z M1970.21,3647.04c3.42-3.63,3.97-6.2,5.45-23.39
		c1.66-19.3,1.68-19.47-2.62-24.58c-4-4.76-5.27-5.19-16.46-6.16c-10.87-0.94-12.53-0.59-16.75,2.8c-4.42,3.87-4.64,4.5-6.33,24.13
		c-1.65,19.14-1.59,20.29,1.99,24.36c3.25,4.04,4.84,4.5,17.33,5.58C1965.63,3650.89,1966.79,3650.67,1970.21,3647.04z"/>
</g>
<rect class="st0" width="199.82" height="55.3"/>
</svg>
