<?xml version="1.0" encoding="utf-8"?>
<!-- Generator: Adobe Illustrator 25.0.1, SVG Export Plug-In . SVG Version: 6.00 Build 0)  -->
<svg version="1.1" id="Capa_1" xmlns="http://www.w3.org/2000/svg" xmlns:xlink="http://www.w3.org/1999/xlink" x="0px" y="0px"
	 viewBox="0 0 715 712" style="enable-background:new 0 0 715 712;" xml:space="preserve">
<style type="text/css">
	.st0{fill:#0C4B75;}
	.st1{fill:#FFFFFF;}
	.st2{font-family:'MyriadPro-Bold';}
	.st3{font-size:122.1364px;}
</style>
<g>
	<polygon class="st0" points="357.39,64.39 432.15,0.33 474.39,89.26 568.74,61.15 571.16,159.57 668.79,172.26 630.97,263.16 
		715,314.47 643.48,382.12 699.37,463.17 606.51,495.89 624.61,592.66 526.47,584.78 503.64,680.55 417.2,633.43 357.39,711.64 
		297.58,633.43 211.13,680.55 188.3,584.78 90.16,592.66 108.26,495.89 15.4,463.17 71.3,382.12 -0.23,314.47 83.8,263.16 
		45.98,172.26 143.61,159.57 146.03,61.15 240.38,89.26 282.63,0.33 	"/>
</g>
<text transform="matrix(0.919 -0.3942 0.3942 0.919 166.4126 395.8548)"><tspan x="0" y="0" class="st1 st2 st3">Nueva</tspan><tspan x="-16" y="146.56" class="st1 st2 st3">receta</tspan></text>
</svg>
