<?xml version="1.0" standalone="no"?>
<!DOCTYPE svg PUBLIC "-//W3C//DTD SVG 20010904//EN"
 "http://www.w3.org/TR/2001/REC-SVG-20010904/DTD/svg10.dtd">
<svg version="1.0" xmlns="http://www.w3.org/2000/svg"
 width="1280.000000pt" height="1077.000000pt" viewBox="0 0 1280.000000 1077.000000"
 preserveAspectRatio="xMidYMid meet">
<metadata>
Created by potrace 1.15, written by Peter Selinger 2001-2017
</metadata>
<g transform="translate(0.000000,1077.000000) scale(0.100000,-0.100000)"
fill="#000000" stroke="none">
<path d="M7255 9290 l-1480 -1480 -2667 0 -2668 0 0 -55 0 -55 63 0 c36 0 68
-5 75 -12 17 -17 17 -309 0 -326 -7 -7 -39 -12 -75 -12 l-63 0 0 -985 0 -985
63 0 c105 0 107 -3 107 -184 0 -105 -4 -156 -12 -164 -7 -7 -42 -12 -85 -12
l-73 0 0 -45 0 -45 1227 0 1228 0 -1448 -1448 -1447 -1447 38 -38 38 -37 44
45 c24 25 53 45 63 45 11 0 64 -45 123 -103 121 -119 125 -130 62 -194 l-43
-43 698 -698 697 -697 49 49 c73 72 83 69 203 -52 121 -120 123 -130 52 -203
l-48 -49 29 -29 30 -30 2470 2464 2470 2464 2913 1 2912 0 0 315 0 315 -150 0
-150 0 0 800 0 800 150 0 150 0 0 325 0 325 -1472 0 -1473 0 458 458 c251 251
457 462 457 467 0 13 -422 435 -435 435 -6 0 -55 -45 -110 -100 l-100 -100
-567 567 -568 568 102 102 103 103 -225 228 c-124 126 -227 230 -230 230 -3 1
-671 -664 -1485 -1478z m1582 1178 c78 -78 103 -109 103 -129 0 -19 -19 -44
-74 -97 -41 -40 -82 -72 -92 -72 -23 0 -234 211 -234 234 0 10 32 51 72 92 52
54 78 74 97 74 19 0 52 -26 128 -102z m-286 -285 c63 -62 109 -115 109 -126 0
-30 -138 -167 -169 -167 -35 0 -231 195 -231 230 0 29 137 170 165 170 10 0
67 -48 126 -107z m-284 -285 c78 -78 103 -109 103 -129 0 -19 -19 -44 -74 -97
-41 -40 -77 -72 -80 -72 -42 0 -246 204 -246 245 0 4 32 40 72 81 52 54 78 74
97 74 19 0 52 -26 128 -102z m-281 -281 c78 -77 104 -109 104 -128 0 -19 -20
-45 -74 -97 -41 -40 -82 -72 -93 -72 -10 0 -66 48 -127 109 -93 93 -108 113
-103 133 9 34 140 158 167 158 15 0 57 -35 126 -103z m-393 -188 c53 -27 217
-204 217 -235 0 -3 -32 -39 -72 -80 -53 -55 -78 -74 -97 -74 -37 0 -231 194
-231 231 0 19 20 45 74 97 41 40 77 72 81 72 3 0 16 -5 28 -11z m-176 -382
c73 -73 103 -110 103 -127 0 -29 -137 -170 -165 -170 -24 0 -235 209 -235 233
0 30 138 167 169 167 18 0 52 -27 128 -103z m3086 -216 c59 -59 107 -114 107
-121 0 -21 -152 -170 -174 -170 -30 0 -226 199 -226 230 0 31 135 170 165 170
14 0 60 -39 128 -109z m-3371 -69 c59 -59 108 -116 108 -126 0 -10 -32 -51
-72 -92 -53 -55 -78 -74 -97 -74 -37 0 -231 194 -231 231 0 19 20 45 74 97 41
40 82 72 92 72 10 0 67 -49 126 -108z m3080 -209 c65 -65 108 -116 108 -128 0
-30 -138 -165 -170 -165 -18 0 -51 27 -127 104 -57 57 -103 111 -103 121 0 22
148 175 169 175 9 0 64 -48 123 -107z m-3365 -75 c78 -78 103 -109 103 -129 0
-19 -19 -44 -74 -97 -41 -40 -82 -72 -92 -72 -10 0 -67 49 -126 108 -59 59
-108 116 -108 126 0 10 32 51 72 92 52 54 78 74 97 74 19 0 52 -26 128 -102z
m3075 -195 c99 -97 124 -133 109 -161 -14 -26 -147 -152 -162 -152 -21 0 -229
212 -229 234 0 30 138 166 169 166 16 0 51 -27 113 -87z m-3358 -92 c93 -93
108 -113 103 -133 -9 -35 -140 -158 -168 -158 -33 0 -229 197 -229 230 0 31
135 170 165 170 13 0 62 -41 129 -109z m3083 -204 c76 -76 103 -110 103 -128
0 -45 -14 -49 -166 -49 l-141 0 -47 50 c-25 27 -46 54 -46 61 0 21 152 169
174 169 12 0 60 -40 123 -103z m-3367 -81 l95 -96 -187 0 c-168 0 -188 2 -196
18 -6 9 -6 26 -2 37 10 24 128 141 150 147 23 8 38 -3 140 -106z m-673 -264
l-57 -57 0 41 c0 53 16 72 65 76 22 2 42 2 45 0 2 -1 -22 -28 -53 -60z m601
46 c6 -6 12 -26 12 -45 0 -32 -1 -33 -22 -22 -25 12 -88 69 -88 79 0 9 84 -1
98 -12z m3620 0 c15 -13 17 -290 2 -319 -10 -17 -22 -19 -120 -19 -136 0 -140
3 -140 103 l0 72 91 91 c82 82 93 90 122 86 18 -3 38 -9 45 -14z m-8850 0 c17
-17 17 -309 0 -326 -8 -8 -49 -12 -118 -12 -69 0 -110 4 -118 12 -17 17 -17
309 0 326 8 8 49 12 118 12 69 0 110 -4 118 -12z m402 2 c12 -7 16 -38 18
-150 5 -193 7 -190 -136 -190 -71 0 -112 4 -120 12 -17 17 -17 309 0 326 15
15 215 16 238 2z m410 -9 c5 -11 10 -81 10 -156 0 -75 -5 -145 -10 -156 -10
-17 -22 -19 -125 -19 -103 0 -115 2 -125 19 -5 11 -10 81 -10 156 0 75 5 145
10 156 10 17 22 19 125 19 103 0 115 -2 125 -19z m398 7 c17 -17 17 -309 0
-326 -19 -19 -222 -16 -242 4 -13 13 -16 41 -16 155 0 78 5 149 10 160 10 17
22 19 123 19 75 0 117 -4 125 -12z m400 0 c18 -18 17 -312 -2 -327 -9 -8 -51
-11 -122 -9 -104 3 -109 4 -121 28 -8 16 -13 70 -13 150 0 172 -1 170 139 170
70 0 111 -4 119 -12z m406 -10 c13 -18 16 -51 16 -153 0 -177 2 -175 -139
-175 -70 0 -111 4 -119 12 -17 17 -17 309 0 326 8 8 49 12 119 12 100 0 109
-2 123 -22z m406 3 c5 -11 10 -82 10 -160 0 -114 -3 -142 -16 -155 -20 -20
-223 -23 -242 -4 -17 17 -17 309 0 326 8 8 50 12 125 12 101 0 113 -2 123 -19z
m400 0 c5 -11 10 -81 10 -156 0 -75 -5 -145 -10 -156 -10 -17 -22 -19 -125
-19 -103 0 -115 2 -125 19 -5 11 -10 81 -10 156 0 75 5 145 10 156 10 17 22
19 125 19 103 0 115 -2 125 -19z m398 7 c17 -17 17 -309 0 -326 -8 -8 -49 -12
-120 -12 -143 0 -141 -3 -136 190 2 112 6 143 18 150 23 14 223 13 238 -2z
m400 0 c17 -17 17 -309 0 -326 -8 -8 -49 -12 -118 -12 -69 0 -110 4 -118 12
-17 17 -17 309 0 326 8 8 49 12 118 12 69 0 110 -4 118 -12z m400 0 c17 -17
17 -309 0 -326 -8 -8 -49 -12 -118 -12 -69 0 -110 4 -118 12 -17 17 -17 309 0
326 8 8 49 12 118 12 69 0 110 -4 118 -12z m412 -7 c5 -11 10 -66 10 -123 l0
-102 -52 -53 -52 -53 -71 0 c-42 0 -76 5 -83 12 -8 8 -12 59 -12 163 0 104 4
155 12 163 8 8 50 12 125 12 101 0 113 -2 123 -19z m3992 -18 c34 -33 38 -42
38 -88 0 -51 -2 -53 -64 -113 -47 -46 -69 -60 -83 -56 -10 4 -42 30 -70 58
l-53 50 0 74 c0 108 3 112 107 112 87 0 87 0 125 -37z m826 25 c8 -8 12 -59
12 -163 0 -104 -4 -155 -12 -163 -8 -8 -49 -12 -119 -12 -141 0 -139 -2 -139
175 0 177 -2 175 139 175 70 0 111 -4 119 -12z m406 -10 c21 -29 23 -259 3
-298 -12 -24 -17 -25 -121 -28 -71 -2 -113 1 -122 9 -19 15 -20 309 -2 327 8
8 49 12 119 12 100 0 109 -2 123 -22z m406 3 c5 -11 10 -80 10 -153 0 -181 2
-178 -139 -178 -70 0 -111 4 -119 12 -17 17 -17 309 0 326 8 8 50 12 125 12
101 0 113 -2 123 -19z m400 0 c5 -11 10 -81 10 -156 0 -75 -5 -145 -10 -156
-10 -17 -22 -19 -125 -19 -103 0 -115 2 -125 19 -5 11 -10 81 -10 156 0 75 5
145 10 156 10 17 22 19 125 19 103 0 115 -2 125 -19z m398 7 c8 -8 12 -59 12
-163 0 -104 -4 -155 -12 -163 -8 -8 -49 -12 -120 -12 -143 0 -141 -3 -136 190
2 112 6 143 18 150 23 14 223 13 238 -2z m400 0 c8 -8 12 -59 12 -163 0 -104
-4 -155 -12 -163 -8 -8 -49 -12 -118 -12 -69 0 -110 4 -118 12 -17 17 -17 309
0 326 8 8 49 12 118 12 69 0 110 -4 118 -12z m400 0 c8 -8 12 -59 12 -163 0
-104 -4 -155 -12 -163 -8 -8 -49 -12 -118 -12 -69 0 -110 4 -118 12 -17 17
-17 309 0 326 8 8 49 12 118 12 69 0 110 -4 118 -12z m-6818 -143 l0 -119 -60
59 c-34 33 -60 68 -60 79 0 28 101 130 112 113 4 -6 8 -66 8 -132z m213 46
c41 -43 67 -78 67 -91 0 -13 -24 -46 -60 -83 -58 -59 -61 -61 -75 -43 -12 15
-15 51 -15 153 0 73 4 133 8 133 5 0 39 -31 75 -69z m2974 -103 c37 -36 44
-79 17 -116 -14 -20 -23 -22 -125 -22 -79 0 -109 3 -109 12 0 21 143 158 164
158 11 0 35 -14 53 -32z m-3357 -84 c28 -26 50 -49 50 -53 0 -3 -28 -5 -62 -3
-69 4 -88 17 -88 63 0 26 10 37 38 38 7 1 35 -20 62 -45z m3780 -34 c-6 -11
-16 -20 -22 -20 -6 0 -3 9 7 20 10 11 20 20 22 20 2 0 -1 -9 -7 -20z m-8428
-2008 c9 -9 14 -55 16 -153 5 -192 7 -189 -138 -189 -98 0 -110 2 -120 19 -5
11 -10 84 -10 165 0 181 -2 179 142 174 62 -2 102 -8 110 -16z m404 -6 c21
-30 20 -298 -2 -320 -12 -13 -38 -16 -119 -16 -141 0 -136 -7 -133 183 3 150
3 152 28 165 17 8 56 12 118 10 79 -3 96 -6 108 -22z m392 8 c21 -14 22 -22
22 -160 0 -81 -5 -154 -10 -165 -10 -17 -22 -19 -120 -19 -143 0 -140 -3 -140
180 0 179 -1 178 140 179 62 1 92 -3 108 -15z m400 0 c21 -15 22 -21 22 -168
0 -119 -3 -156 -14 -165 -9 -8 -51 -11 -122 -9 -104 3 -109 4 -121 28 -8 16
-13 70 -13 153 0 123 1 129 25 152 22 23 32 25 112 25 64 0 95 -4 111 -16z
m407 -9 c24 -23 25 -29 25 -152 0 -83 -5 -137 -13 -153 -12 -24 -17 -25 -121
-28 -71 -2 -113 1 -122 9 -11 9 -14 46 -14 165 0 187 -2 184 133 184 80 0 90
-2 112 -25z m411 1 c10 -15 14 -54 14 -155 0 -125 -2 -136 -22 -158 -20 -21
-30 -23 -124 -23 -92 0 -104 2 -114 19 -5 11 -10 84 -10 165 0 181 -2 179 143
174 84 -3 101 -6 113 -22z m239 -66 l-90 -91 -3 58 c-6 108 7 121 118 122 l65
1 -90 -90z m508 21 c37 -38 67 -72 67 -76 0 -37 -134 -175 -171 -175 -13 0
-40 16 -61 37 l-38 37 0 92 c0 138 8 150 96 153 38 1 45 -4 107 -68z m3273 44
c11 -15 14 -45 12 -120 -3 -87 -5 -100 -21 -103 -22 -5 -227 193 -227 219 0
24 20 28 128 26 81 -2 96 -5 108 -22z m792 9 c21 -14 22 -21 22 -168 0 -105
-4 -156 -12 -164 -16 -16 -220 -16 -236 0 -8 8 -12 61 -12 170 0 186 -7 176
130 177 62 1 92 -3 108 -15z m400 0 c21 -14 22 -21 22 -168 0 -105 -4 -156
-12 -164 -16 -16 -220 -16 -236 0 -8 8 -12 59 -12 164 0 186 -2 184 130 184
61 0 92 -4 108 -16z m414 -2 c9 -9 14 -55 16 -153 5 -192 7 -189 -136 -189
-71 0 -112 4 -120 12 -8 8 -12 59 -12 164 0 190 -3 187 142 182 62 -2 102 -8
110 -16z m404 -6 c21 -30 20 -298 -2 -320 -12 -13 -38 -16 -119 -16 -141 0
-136 -7 -133 183 3 150 3 152 28 165 17 8 56 12 118 10 79 -3 96 -6 108 -22z
m397 5 c24 -20 25 -301 1 -325 -12 -12 -38 -16 -116 -16 -141 0 -138 -4 -138
175 0 143 5 165 40 179 30 11 196 1 213 -13z m395 3 c21 -14 22 -21 22 -168 0
-105 -4 -156 -12 -164 -8 -8 -49 -12 -119 -12 -141 0 -139 -3 -139 178 0 128
1 134 25 157 22 23 32 25 112 25 64 0 95 -4 111 -16z m403 -3 c23 -19 24 -24
24 -164 0 -107 -3 -148 -14 -160 -11 -14 -33 -17 -120 -17 -70 0 -111 4 -119
12 -8 8 -12 59 -12 164 0 187 -2 184 131 184 71 0 91 -4 110 -19z m415 -5 c10
-15 14 -55 14 -160 0 -181 4 -176 -141 -176 -97 0 -109 2 -119 19 -5 11 -10
84 -10 165 0 181 -2 179 143 174 84 -3 101 -6 113 -22z m400 0 c21 -30 20
-298 -2 -320 -12 -13 -38 -16 -119 -16 -81 0 -107 3 -119 16 -13 13 -16 42
-16 158 0 188 -1 187 148 183 80 -2 96 -5 108 -21z m392 8 c21 -14 22 -21 22
-168 0 -105 -4 -156 -12 -164 -8 -8 -49 -12 -119 -12 -141 0 -139 -2 -139 172
0 135 8 173 37 181 10 3 56 5 103 6 63 1 91 -3 108 -15z m400 0 c21 -14 22
-21 22 -168 0 -105 -4 -156 -12 -164 -16 -16 -220 -16 -236 0 -13 13 -17 305
-4 324 12 18 33 22 122 23 62 1 92 -3 108 -15z m396 6 l26 -10 0 -158 c0 -110
-4 -162 -12 -170 -16 -16 -220 -16 -236 0 -8 8 -12 59 -12 164 0 147 1 154 22
168 26 18 170 22 212 6z m418 -8 c9 -9 14 -55 16 -153 5 -191 6 -189 -133
-189 -81 0 -107 3 -119 16 -13 13 -16 42 -16 164 0 186 -2 183 142 178 62 -2
102 -8 110 -16z m-5224 -4 c8 -8 12 -58 12 -159 0 -121 -3 -150 -16 -163 -12
-13 -38 -16 -119 -16 -96 0 -105 2 -119 22 -9 12 -16 38 -16 58 0 31 12 47
117 152 65 65 120 118 123 118 3 0 11 -5 18 -12z m-251 -75 c-3 -10 -5 -2 -5
17 0 19 2 27 5 18 2 -10 2 -26 0 -35z m-537 -136 c0 -103 -13 -127 -70 -127
-41 0 -70 26 -70 63 0 18 115 147 132 147 4 0 8 -37 8 -83z m-3268 -24 c52
-51 56 -63 32 -87 -12 -12 -38 -16 -114 -16 -103 0 -130 5 -130 23 0 6 26 37
57 69 72 73 91 74 155 11z m3528 -95 c0 -4 -22 -8 -49 -8 -66 0 -81 16 -81 88
l0 56 65 -64 c36 -35 65 -68 65 -72z m-3379 -115 c-16 -32 -139 -143 -156
-143 -10 0 -54 36 -99 80 l-81 80 173 0 c161 0 172 -1 163 -17z m3007 -77 c51
-51 92 -99 92 -106 0 -19 -153 -170 -172 -170 -8 0 -63 47 -121 105 -128 125
-130 132 -56 211 51 53 53 54 109 54 l56 0 92 -94z m267 54 c-50 -51 -74 -51
-128 0 l-42 39 105 1 104 0 -39 -40z m-3651 -109 c92 -93 107 -113 101 -133
-10 -35 -138 -158 -165 -158 -34 0 -230 195 -230 229 0 32 134 171 165 171 14
0 60 -40 129 -109z m3080 -206 c71 -71 106 -113 106 -127 0 -29 -137 -168
-165 -168 -13 0 -62 41 -129 109 -93 93 -108 113 -103 133 8 32 140 158 165
158 12 0 62 -42 126 -105z m-3373 -72 c78 -77 109 -114 109 -131 0 -15 -20
-45 -57 -84 -66 -69 -99 -89 -128 -78 -33 13 -215 205 -215 227 0 21 149 173
170 173 7 0 62 -48 121 -107z m3097 -217 c56 -57 102 -111 102 -121 0 -9 -32
-50 -72 -91 -52 -54 -78 -74 -97 -74 -36 0 -231 194 -231 229 0 17 21 46 68
93 97 96 101 95 230 -36z m-3374 -75 c93 -93 108 -113 103 -133 -9 -34 -140
-158 -167 -158 -33 0 -230 197 -230 230 0 31 135 170 165 170 13 0 62 -41 129
-109z m3082 -203 c78 -76 104 -108 104 -127 0 -32 -134 -171 -165 -171 -26 0
-235 209 -235 235 0 28 141 165 170 165 16 0 55 -32 126 -102z m-3375 -75 c81
-79 109 -113 109 -132 0 -34 -127 -161 -161 -161 -19 0 -53 28 -132 109 -59
59 -107 114 -107 121 0 18 152 170 170 170 7 0 62 -48 121 -107z m3090 -210
c68 -66 109 -115 109 -127 0 -31 -138 -166 -170 -166 -35 0 -230 194 -230 229
0 30 137 171 165 171 10 0 67 -48 126 -107z m-3364 -76 c74 -74 103 -110 103
-127 0 -29 -138 -170 -166 -170 -25 0 -234 209 -234 234 0 31 138 166 169 166
18 0 53 -28 128 -103z m3080 -209 c78 -78 103 -109 103 -129 0 -19 -19 -44
-74 -97 -41 -40 -82 -72 -92 -72 -9 0 -64 47 -122 103 -131 130 -132 134 -34
229 46 45 78 68 93 68 17 0 54 -31 126 -102z m-3371 -70 c131 -129 132 -133
36 -230 -47 -47 -76 -68 -93 -68 -18 0 -52 28 -125 103 -56 56 -104 110 -108
121 -5 14 13 37 71 97 44 46 85 79 96 79 12 0 63 -42 123 -102z m3086 -215
c65 -65 108 -116 108 -128 0 -30 -138 -165 -169 -165 -35 0 -231 196 -231 230
0 29 137 170 166 170 11 0 65 -46 126 -107z m-3364 -77 c72 -71 102 -108 102
-124 0 -15 -21 -46 -57 -84 -62 -64 -99 -88 -123 -80 -30 9 -220 206 -220 228
0 31 152 176 176 168 11 -4 65 -52 122 -108z m3079 -208 c78 -78 103 -109 103
-129 0 -19 -19 -44 -74 -97 -41 -40 -80 -72 -87 -72 -7 0 -64 51 -127 114
l-114 114 15 28 c23 45 132 144 159 144 15 0 55 -32 125 -102z m-3364 -77 c59
-59 107 -116 107 -126 0 -27 -143 -165 -171 -165 -33 0 -229 197 -229 230 0
31 135 170 165 170 14 0 60 -39 128 -109z m3084 -204 c74 -74 103 -110 103
-127 0 -31 -135 -170 -165 -170 -13 0 -62 41 -129 109 -93 93 -108 113 -103
133 9 35 140 158 168 158 16 0 55 -32 126 -103z m-3376 -74 c79 -77 109 -114
109 -131 0 -16 -22 -46 -69 -93 -95 -96 -99 -95 -228 34 -58 58 -103 111 -103
122 0 21 149 175 170 175 7 0 62 -48 121 -107z m3091 -211 c59 -59 108 -116
108 -126 0 -10 -32 -51 -72 -92 -53 -55 -78 -74 -97 -74 -36 0 -231 194 -231
229 0 30 137 171 165 171 11 0 66 -47 127 -108z m-3365 -75 c63 -64 103 -112
103 -124 0 -25 -144 -173 -168 -173 -24 0 -232 210 -232 235 0 29 138 165 169
165 17 0 53 -29 128 -103z m3080 -209 c78 -78 103 -109 103 -129 0 -19 -19
-44 -74 -97 -41 -40 -82 -72 -92 -72 -24 0 -234 211 -234 235 0 28 141 165
171 165 17 0 53 -29 126 -102z m-285 -286 c59 -59 108 -116 108 -126 0 -10
-32 -51 -72 -92 -52 -54 -78 -74 -97 -74 -35 0 -231 195 -231 230 0 29 137
170 165 170 11 0 66 -47 127 -108z m-285 -284 c78 -78 103 -109 103 -129 0
-19 -19 -44 -74 -97 -41 -40 -82 -72 -92 -72 -24 0 -234 211 -234 235 0 28
141 165 171 165 17 0 53 -29 126 -102z m-285 -285 c61 -61 108 -116 108 -126
0 -30 -138 -167 -169 -167 -35 0 -231 195 -231 230 0 29 137 170 166 170 11 0
65 -46 126 -107z m-284 -277 c73 -71 112 -120 112 -142 0 -3 -32 -39 -72 -80
-52 -54 -78 -74 -97 -74 -37 0 -231 194 -231 230 0 18 19 44 68 92 37 36 74
68 82 70 24 8 50 -10 138 -96z m-281 -289 c71 -71 103 -110 103 -126 0 -28
-123 -159 -158 -168 -20 -5 -40 10 -133 103 -64 64 -109 117 -109 128 0 29
141 166 170 166 17 0 54 -30 127 -103z"/>
</g>
</svg>
